<svg xmlns="http://www.w3.org/2000/svg" viewBox="0 0 48 48">
  <defs>
    <linearGradient id="gold" x1="0" y1="0" x2="48" y2="48" gradientUnits="userSpaceOnUse">
      <stop offset="0%" stop-color="#C8962E"/>
      <stop offset="100%" stop-color="#A37518"/>
    </linearGradient>
  </defs>

  <!-- Book spine shadow -->
  <line x1="24" y1="2" x2="24" y2="46" stroke="#C8962E" stroke-opacity="0.3" stroke-width="1"/>

  <!-- Book left page -->
  <path d="M1 4C9 3 21 3.5 24 5.5L24 46C21 44 9 43.5 1 44.5Z" fill="#C8962E" opacity="0.85"/>
  <!-- Book right page -->
  <path d="M47 4C39 3 27 3.5 24 5.5L24 46C27 44 39 43.5 47 44.5Z" fill="#C8962E"/>

  <!-- Ledger lines on left page -->
  <line x1="5" y1="15" x2="20" y2="14.5" stroke="white" stroke-opacity="0.7" stroke-width="1.4" stroke-linecap="round"/>
  <line x1="5" y1="21" x2="20" y2="20.5" stroke="white" stroke-opacity="0.5" stroke-width="1.4" stroke-linecap="round"/>
  <line x1="5" y1="27" x2="19" y2="26.5" stroke="white" stroke-opacity="0.35" stroke-width="1.4" stroke-linecap="round"/>
  <line x1="5" y1="33" x2="18" y2="32.5" stroke="white" stroke-opacity="0.25" stroke-width="1.4" stroke-linecap="round"/>

  <!-- Cedis mark on right page -->
  <path d="M37.4 14.9C34.5 14.9 32.1 16 30.4 18.2C28.7 20.2 27.8 22.8 27.8 25.4C27.8 28 28.7 30.6 30.4 32.6C32.1 34.8 34.5 35.9 37.4 35.9" stroke="white" stroke-opacity="0.95" stroke-width="2.8" stroke-linecap="round" fill="none"/>
  <line x1="33.5" y1="13.8" x2="33.5" y2="37.2" stroke="white" stroke-opacity="0.95" stroke-width="2" stroke-linecap="round"/>
</svg>
